<?xml version="1.0" encoding="UTF-8"?>
<svg xmlns="http://www.w3.org/2000/svg" xmlns:xlink="http://www.w3.org/1999/xlink" width="3124px" height="500px" viewBox="0 0 3124 500" version="1.1">
  <title>HomeWizard logo Home Assistant</title>
  <defs>
    <path d="M60.5843687,364.861111 L0,364.861111 L0,22.9537037 L60.5843687,22.9537037 L60.5843687,145.944444 C70.8529058,137.37963 82.5761523,130.270833 95.7541082,124.618056 C108.932064,118.965278 123.222445,116.138889 138.625251,116.138889 C153.001202,116.138889 165.409018,118.280093 175.848697,122.5625 C186.288377,126.844907 194.931062,132.75463 201.776754,140.291667 C208.622445,147.828704 213.671142,156.736111 216.922846,167.013889 C220.174549,177.291667 221.800401,188.597222 221.800401,200.930556 L221.800401,364.861111 L161.216032,364.861111 L161.216032,212.75 C161.216032,195.277778 157.707615,182.6875 150.690782,174.979167 C143.673948,167.270833 133.31984,163.416667 119.628457,163.416667 C109.702204,163.416667 99.6048096,165.814815 89.3362725,170.611111 C79.0677355,175.407407 69.4837675,182.087963 60.5843687,190.652778 L60.5843687,364.861111 Z M509.319439,241.013889 C509.319439,261.226852 506.153307,279.384259 499.821042,295.486111 C493.488778,311.587963 484.67495,325.12037 473.379559,336.083333 C462.084168,347.046296 448.906212,355.439815 433.845691,361.263889 C418.78517,367.087963 402.526653,370 385.07014,370 C367.613627,370 351.440681,367.259259 336.551303,361.777778 C321.661924,356.296296 308.740681,348.331019 297.787575,337.881944 C286.834469,327.43287 278.277355,314.5 272.116232,299.083333 C265.95511,283.666667 262.874549,266.023148 262.874549,246.152778 C262.874549,225.597222 266.040681,207.18287 272.372946,190.909722 C278.70521,174.636574 287.519038,161.018519 298.814429,150.055556 C310.10982,139.092593 323.287776,130.699074 338.348297,124.875 C353.408818,119.050926 369.667335,116.138889 387.123848,116.138889 C404.580361,116.138889 420.753307,118.793981 435.642685,124.104167 C450.532064,129.414352 463.453307,137.37963 474.406413,148 C485.359519,158.62037 493.916633,171.638889 500.077756,187.055556 C506.238878,202.472222 509.319439,220.458333 509.319439,241.013889 Z M446.681363,243.583333 C446.681363,228.851852 444.96994,216.261574 441.547094,205.8125 C438.124248,195.363426 433.588978,186.884259 427.941283,180.375 C422.293587,173.865741 415.79018,169.069444 408.431062,165.986111 C401.071944,162.902778 393.456112,161.361111 385.583567,161.361111 C377.711022,161.361111 370.180762,162.645833 362.992786,165.215278 C355.80481,167.784722 349.472545,172.238426 343.995992,178.576389 C338.519439,184.914352 334.069739,193.393519 330.646894,204.013889 C327.224048,214.634259 325.512625,227.824074 325.512625,243.583333 C325.512625,257.972222 327.224048,270.219907 330.646894,280.326389 C334.069739,290.43287 338.60501,298.826389 344.252705,305.506944 C349.900401,312.1875 356.403808,317.069444 363.762926,320.152778 C371.122044,323.236111 378.737876,324.777778 386.610421,324.777778 C394.140681,324.777778 401.585371,323.407407 408.944489,320.666667 C416.303607,317.925926 422.721443,313.472222 428.197996,307.305556 C433.674549,301.138889 438.124248,292.831019 441.547094,282.381944 C444.96994,271.93287 446.681363,259 446.681363,243.583333 Z M610.464529,364.861111 L549.88016,364.861111 L549.88016,120.763889 L596.602004,120.763889 L604.303407,153.138889 C615.598798,141.833333 627.7499,132.840278 640.756713,126.159722 C653.763527,119.479167 668.824048,116.138889 685.938277,116.138889 C703.052505,116.138889 717.428457,119.479167 729.066132,126.159722 C740.703808,132.840278 749.432064,142.347222 755.250902,154.680556 C766.888577,142.689815 779.724248,133.268519 793.757916,126.416667 C807.791583,119.564815 823.194389,116.138889 839.966333,116.138889 C865.637675,116.138889 885.147896,123.162037 898.496994,137.208333 C911.846092,151.25463 918.520641,171.296296 918.520641,197.333333 L918.520641,364.861111 L857.936273,364.861111 L857.936273,205.555556 C857.936273,192.537037 854.855711,182.259259 848.694589,174.722222 C842.533467,167.185185 833.120641,163.416667 820.456112,163.416667 C810.52986,163.416667 800.603607,165.814815 790.677355,170.611111 C780.751102,175.407407 771.851703,182.259259 763.979158,191.166667 C764.321443,193.564815 764.492585,195.706019 764.492585,197.590278 C764.492585,199.474537 764.492585,201.615741 764.492585,204.013889 L764.492585,364.861111 L703.908216,364.861111 L703.908216,205.555556 C703.908216,192.537037 700.827655,182.259259 694.666533,174.722222 C688.505411,167.185185 679.092585,163.416667 666.428056,163.416667 C656.501804,163.416667 646.661122,166.071759 636.906012,171.381944 C627.150902,176.69213 618.337074,183.972222 610.464529,193.222222 L610.464529,364.861111 Z M1186.52946,256.430556 L1020.69259,256.430556 L1020.69259,258.486111 C1020.69259,280.75463 1027.62385,297.37037 1041.48637,308.333333 C1055.3489,319.296296 1073.57555,324.777778 1096.16633,324.777778 C1109.51543,324.777778 1121.40982,323.578704 1131.8495,321.180556 C1142.28918,318.782407 1152.301,315.527778 1161.88497,311.416667 L1173.69379,354.069444 C1163.76754,358.523148 1151.95872,362.291667 1138.26733,365.375 C1124.57595,368.458333 1108.65972,370 1090.51864,370 C1072.37756,370 1055.3489,367.601852 1039.43267,362.805556 C1023.51643,358.009259 1009.56834,350.472222 997.588377,340.194444 C985.608417,329.916667 976.11002,316.898148 969.093186,301.138889 C962.076353,285.37963 958.567936,266.537037 958.567936,244.611111 C958.567936,225.425926 961.477355,207.953704 967.296192,192.194444 C973.11503,176.435185 981.32986,162.902778 991.940681,151.597222 C1002.5515,140.291667 1015.38717,131.555556 1030.4477,125.388889 C1045.50822,119.222222 1062.10902,116.138889 1080.2501,116.138889 C1112.76713,116.138889 1138.60962,126.074074 1157.77756,145.944444 C1176.94549,165.814815 1186.52946,193.393519 1186.52946,228.680556 L1186.52946,256.430556 Z M1124.40481,214.291667 C1124.40481,207.097222 1123.5491,200.159722 1121.83768,193.479167 C1120.12625,186.798611 1117.38798,180.888889 1113.62285,175.75 C1109.85772,170.611111 1104.98016,166.585648 1098.99018,163.673611 C1093.0002,160.761574 1085.8978,159.305556 1077.68297,159.305556 C1062.28016,159.305556 1049.61563,164.444444 1039.68938,174.722222 C1029.76313,185 1023.77315,198.532407 1021.71944,215.319444 L1124.40481,214.291667 Z M1196.798,120.763889 L1260.46293,120.763889 L1294.86253,258.486111 L1304.10421,319.125 L1306.15792,319.125 L1316.93988,258.486111 L1351.33948,120.763889 L1415.51784,120.763889 L1449.91743,258.486111 L1460.6994,319.125 L1462.75311,319.125 L1473.53507,258.486111 L1507.42124,120.763889 L1569.03246,120.763889 L1499.20641,364.861111 L1428.86693,364.861111 L1393.95391,227.138889 L1383.17194,168.041667 L1371.36313,227.138889 L1336.4501,364.861111 L1267.13747,364.861111 L1196.798,120.763889 Z M1600.86493,364.861111 L1600.86493,120.763889 L1661.4493,120.763889 L1661.4493,364.861111 L1600.86493,364.861111 Z M1631.15711,64.75 C1620.54629,64.75 1612.24589,61.6666667 1606.25591,55.5 C1600.26593,49.3333333 1597.27094,41.625 1597.27094,32.375 C1597.27094,23.4675926 1600.3515,15.8449074 1606.51263,9.50694444 C1612.67375,3.16898148 1620.88858,0 1631.15711,0 C1641.08337,0 1649.12705,3.08333333 1655.28818,9.25 C1661.4493,15.4166667 1664.52986,23.125 1664.52986,32.375 C1664.52986,41.625 1661.4493,49.3333333 1655.28818,55.5 C1649.12705,61.6666667 1641.08337,64.75 1631.15711,64.75 Z M1888.89739,157.25 L1770.29579,320.666667 L1891.46453,320.666667 L1891.46453,364.861111 L1700.46974,364.861111 L1700.46974,326.833333 L1819.58477,164.958333 L1708.17114,164.958333 L1708.17114,120.763889 L1888.89739,120.763889 L1888.89739,157.25 Z M1928.43126,142.347222 C1943.49178,134.125 1958.72345,127.701389 1974.12625,123.076389 C1989.52906,118.451389 2006.47214,116.138889 2024.95551,116.138889 C2039.33146,116.138889 2052.33828,117.766204 2063.97595,121.020833 C2075.61363,124.275463 2085.71102,129.5 2094.26814,136.694444 C2102.82525,143.888889 2109.41423,153.224537 2114.03507,164.701389 C2118.65591,176.178241 2120.96633,190.138889 2120.96633,206.583333 L2120.96633,364.861111 L2073.21764,364.861111 L2067.05651,339.166667 L2065.51623,339.166667 C2048.05972,359.722222 2023.24409,370 1991.06934,370 C1965.398,370 1945.37435,363.233796 1930.9984,349.701389 C1916.62244,336.168981 1909.43447,318.611111 1909.43447,297.027778 C1909.43447,283.324074 1912.34389,271.50463 1918.16273,261.569444 C1923.98156,251.634259 1931.93968,243.412037 1942.03707,236.902778 C1952.13447,230.393519 1964.2,225.511574 1978.23367,222.256944 C1992.26733,219.002315 2007.499,217.375 2023.92866,217.375 L2059.86854,217.375 L2059.86854,200.416667 C2059.86854,187.055556 2055.93226,177.548611 2048.05972,171.895833 C2040.18717,166.243056 2029.57635,163.416667 2016.22725,163.416667 C2006.64329,163.416667 1996.46032,164.958333 1985.67836,168.041667 C1974.89639,171.125 1963.002,176.435185 1949.99519,183.972222 L1928.43126,142.347222 Z M2060.38196,255.916667 L2032.65691,256.944444 C2010.06613,257.62963 1994.32104,261.483796 1985.42164,268.506944 C1976.52224,275.530093 1972.07255,284.009259 1972.07255,293.944444 C1972.07255,306.62037 1975.83768,315.185185 1983.36794,319.638889 C1990.8982,324.092593 1999.62645,326.319444 2009.55271,326.319444 C2019.47896,326.319444 2028.97735,323.835648 2038.0479,318.868056 C2047.11844,313.900463 2054.56313,306.962963 2060.38196,298.055556 L2060.38196,255.916667 Z M2562,20.3842593 L2562,364.861111 L2516.81844,364.861111 L2510.14389,338.138889 L2508.09018,338.138889 C2500.21764,347.388889 2490.63367,355.011574 2479.33828,361.006944 C2468.04289,367.002315 2453.49579,370 2435.69699,370 C2421.32104,370 2407.62966,367.259259 2394.62285,361.777778 C2381.61603,356.296296 2370.23507,348.159722 2360.47996,337.368056 C2350.72485,326.576389 2343.02345,313.300926 2337.37575,297.541667 C2331.72806,281.782407 2328.90421,263.625 2328.90421,243.069444 C2328.90421,223.884259 2331.38577,206.497685 2336.3489,190.909722 C2341.31202,175.321759 2348.58557,161.960648 2358.16954,150.826389 C2367.75351,139.69213 2379.47675,131.127315 2393.33928,125.131944 C2407.2018,119.136574 2422.86132,116.138889 2440.31784,116.138889 C2452.2978,116.138889 2463.67876,117.9375 2474.46072,121.534722 C2485.24269,125.131944 2494.22766,130.185185 2501.41563,136.694444 L2501.41563,20.3842593 L2562,20.3842593 Z M2300.1523,116.138889 C2308.36713,116.138889 2315.55511,116.99537 2321.71623,118.708333 C2327.87735,120.421296 2333.01162,122.305556 2337.11904,124.361111 L2326.8505,173.694444 C2323.08537,171.638889 2318.46453,169.840278 2312.98798,168.298611 C2307.51142,166.756944 2300.83687,165.986111 2292.96433,165.986111 C2275.50782,165.986111 2260.78958,171.981481 2248.80962,183.972222 C2236.82966,195.962963 2230.83968,214.976852 2230.83968,241.013889 L2230.83968,364.861111 L2170.76874,364.861111 L2170.76874,120.763889 L2217.49058,120.763889 L2225.19198,166.5 C2231.01082,152.453704 2240.25251,140.548611 2252.91703,130.784722 C2265.58156,121.020833 2281.32665,116.138889 2300.1523,116.138889 Z M2454.69379,160.847222 C2446.13667,160.847222 2438.00741,162.303241 2430.30601,165.215278 C2422.60461,168.127315 2415.75892,172.837963 2409.76894,179.347222 C2403.77896,185.856481 2398.98697,194.25 2395.39299,204.527778 C2391.799,214.805556 2390.002,227.138889 2390.002,241.527778 C2390.002,255.916667 2391.62786,268.421296 2394.87956,279.041667 C2398.13126,289.662037 2402.49539,298.3125 2407.97194,304.993056 C2413.4485,311.673611 2419.86633,316.641204 2427.22545,319.895833 C2434.58457,323.150463 2442.37154,324.777778 2450.58637,324.777778 C2461.88176,324.777778 2471.80802,322.122685 2480.36513,316.8125 C2488.92224,311.502315 2495.93908,304.564815 2501.41563,296 L2501.41563,183.458333 C2495.59679,176.606481 2488.7511,171.125 2480.87856,167.013889 C2473.00601,162.902778 2464.27776,160.847222 2454.69379,160.847222 Z" id="path-1"></path>
    <path d="M308.263449,0 C329.688091,0 341.696456,24.6673736 328.47103,41.5106929 L241.324232,152.495479 L308.263449,152.495864 C330.570814,152.495864 342.175061,178.884359 327.391386,195.293783 L326.935041,195.787909 L96.7022699,439.331852 C83.7787762,453.002558 62.2117514,453.615906 48.5310514,440.70181 C38.7939204,431.510322 35.348777,417.470957 39.726173,404.820929 L88.6243746,263.511066 L25.723763,263.511066 C6.14877138,263.511066 -6.15895701,242.547734 3.18963907,225.525561 L3.47958472,225.010987 L102.714714,53.2578965 C121.756048,20.3019021 156.945681,0 195.02805,0 L308.263449,0 Z M255.461491,51.3333246 L195.02805,51.3333246 C175.298646,51.3333246 157.067858,61.851095 147.203071,78.9249865 L70.2122051,212.177742 L124.68393,212.177742 C142.159994,212.177742 154.479538,229.215144 149.126695,245.731897 L148.959055,246.232226 L114.533692,345.715824 L248.665555,203.828804 L188.52236,203.829189 C167.311848,203.829189 155.330539,179.65269 167.925645,162.826183 L168.314864,162.318582 L255.461491,51.3333246 Z" id="path-3"></path>
    <linearGradient x1="22.4553124%" y1="0%" x2="76.7651506%" y2="98.5849844%" id="linearGradient-5">
      <stop stop-color="#B8FF58" offset="0%"></stop>
      <stop stop-color="#02BAFD" offset="100%"></stop>
    </linearGradient>
  </defs>
  <g id="HomeWizard-logo-Home-Assistant" stroke="none" stroke-width="1" fill="none" fill-rule="evenodd">
    <g id="HW_logo_black" transform="translate(46.000000, 25.000000)">
      <g id="Group-3" transform="translate(446.000000, 28.000000)">
        <mask id="mask-2" fill="white">
          <use xlink:href="#path-1"></use>
        </mask>
        <g id="Clip-2"></g>
        <polygon id="Fill-1" fill="#101828" mask="url(#mask-2)" points="-0.427855711 -0.428240741 2562.42786 -0.428240741 2562.42786 370.428241 -0.427855711 370.428241"></polygon>
      </g>
      <g id="Group-6">
        <mask id="mask-4" fill="white">
          <use xlink:href="#path-3"></use>
        </mask>
        <g id="Clip-5"></g>
        <path d="M308.263449,0 C329.688091,0 341.696456,24.6673736 328.47103,41.5106929 L241.324232,152.495479 L308.263449,152.495864 C330.570814,152.495864 342.175061,178.884359 327.391386,195.293783 L326.935041,195.787909 L96.7022699,439.331852 C83.7787762,453.002558 62.2117514,453.615906 48.5310514,440.70181 C38.7939204,431.510322 35.348777,417.470957 39.726173,404.820929 L88.6243746,263.511066 L25.723763,263.511066 C6.14877138,263.511066 -6.15895701,242.547734 3.18963907,225.525561 L3.47958472,225.010987 L102.714714,53.2578965 C121.756048,20.3019021 156.945681,0 195.02805,0 L308.263449,0 Z M255.461491,51.3333246 L195.02805,51.3333246 C175.298646,51.3333246 157.067858,61.851095 147.203071,78.9249865 L70.2122051,212.177742 L124.68393,212.177742 C142.159994,212.177742 154.479538,229.215144 149.126695,245.731897 L148.959055,246.232226 L114.533692,345.715824 L248.665555,203.828804 L188.52236,203.829189 C167.311848,203.829189 155.330539,179.65269 167.925645,162.826183 L168.314864,162.318582 L255.461491,51.3333246 Z" id="Fill-4" fill="url(#linearGradient-5)" mask="url(#mask-4)"></path>
      </g>
    </g>
  </g>
</svg>
