<svg class="logo-nav" xmlns="http://www.w3.org/2000/svg" viewBox="0 0 117 32">
    <path fill="#34cffd" d="M16 27a2.77 2.77 0 0 1-.32 1.29 6.17 6.17 0 0 1-2.82 2.78 10 10 0 0 1-4.5.93 8.21 8.21 0 0 1-6.15-2.26A8.58 8.58 0 0 1 0 23.47V5.61a2.63 2.63 0 0 1 .66-1.92A2.44 2.44 0 0 1 2.51 3a2.46 2.46 0 0 1 1.85.69A2.63 2.63 0 0 1 5 5.61v4.68h7.5a2.62 2.62 0 0 1 1.83.6 2.13 2.13 0 0 1 .67 1.66 2.07 2.07 0 0 1-.66 1.61 2.62 2.62 0 0 1-1.83.6H5v8.84a4.09 4.09 0 0 0 1 2.92 3.38 3.38 0 0 0 2.62 1 3.62 3.62 0 0 0 3.21-1.72 2.42 2.42 0 0 1 .79-.77 2 2 0 0 1 1.1-.29 2.39 2.39 0 0 1 1.65.57A2.13 2.13 0 0 1 16 27zm22.12 1.37a9.56 9.56 0 0 1-3.66 2.69 12.85 12.85 0 0 1-5 .94 13.3 13.3 0 0 1-4.71-.81 10.89 10.89 0 0 1-3.64-2.25 9.81 9.81 0 0 1-2.32-3.46A11.91 11.91 0 0 1 18 21a12 12 0 0 1 .81-4.48 9.93 9.93 0 0 1 2.3-3.48 10.59 10.59 0 0 1 3.57-2.25 12.61 12.61 0 0 1 4.58-.79 11.8 11.8 0 0 1 4.25.76 11.09 11.09 0 0 1 3.42 2.08 9.56 9.56 0 0 1 2.26 3.09 8.92 8.92 0 0 1 .81 3.78v.22a2.69 2.69 0 0 1-.79 2 2.88 2.88 0 0 1-2.06.77H23.08a5.87 5.87 0 0 0 2.15 3.65 6.7 6.7 0 0 0 4.25 1.33 6.73 6.73 0 0 0 3-.61 6.21 6.21 0 0 0 2.09-1.53 2.39 2.39 0 0 1 3.43-.23 2.14 2.14 0 0 1 .61 1.61 2.32 2.32 0 0 1-.49 1.45zm-8.86-14.08a6.57 6.57 0 0 0-4 1.24 5.59 5.59 0 0 0-2.17 3.35h12.22a5.7 5.7 0 0 0-2.1-3.35 6.29 6.29 0 0 0-3.95-1.24zM63.47 0a2.45 2.45 0 0 1 1.85.71A2.7 2.7 0 0 1 66 2.63V29.1a2.66 2.66 0 0 1-.68 1.9 2.47 2.47 0 0 1-1.85.69 2.39 2.39 0 0 1-1.8-.69 2.65 2.65 0 0 1-.67-1.9v-.22h-.09a8.25 8.25 0 0 1-3.11 2.32 12 12 0 0 1-8.61 0 9.52 9.52 0 0 1-3.32-2.28 9.93 9.93 0 0 1-2.13-3.52 13.5 13.5 0 0 1-.74-4.59 13.62 13.62 0 0 1 .74-4.61 9.87 9.87 0 0 1 2.13-3.54 9.52 9.52 0 0 1 3.32-2.28 11.09 11.09 0 0 1 4.3-.8 11 11 0 0 1 4.31.8 8.25 8.25 0 0 1 3.13 2.32h.13L61 2.63a2.73 2.73 0 0 1 .68-1.92A2.33 2.33 0 0 1 63.47 0zm-9 27.5a7.11 7.11 0 0 0 2.64-.5 5.89 5.89 0 0 0 2.09-1.39 6.1 6.1 0 0 0 1.35-2.11 7.53 7.53 0 0 0 .47-2.7 7.64 7.64 0 0 0-.47-2.72 6 6 0 0 0-3.44-3.52 7.11 7.11 0 0 0-2.65-.49 6.25 6.25 0 0 0-4.68 1.85A6.63 6.63 0 0 0 48 20.81a6.66 6.66 0 0 0 1.8 4.84 6.22 6.22 0 0 0 4.66 1.85zm35.65.87a9.41 9.41 0 0 1-3.66 2.69 12.77 12.77 0 0 1-5 .94 13.3 13.3 0 0 1-4.71-.81 10.89 10.89 0 0 1-3.64-2.25 9.81 9.81 0 0 1-2.32-3.46A11.91 11.91 0 0 1 70 21a12 12 0 0 1 .81-4.48 9.93 9.93 0 0 1 2.3-3.48 10.59 10.59 0 0 1 3.57-2.25 12.61 12.61 0 0 1 4.58-.79 11.8 11.8 0 0 1 4.25.76 11.09 11.09 0 0 1 3.42 2.08 9.56 9.56 0 0 1 2.26 3.09 8.92 8.92 0 0 1 .81 3.78v.22a2.69 2.69 0 0 1-.79 2 2.88 2.88 0 0 1-2.06.77H75.08a5.87 5.87 0 0 0 2.15 3.65 7.54 7.54 0 0 0 7.25.72 6.21 6.21 0 0 0 2.09-1.53 2.39 2.39 0 0 1 3.43-.23 2.14 2.14 0 0 1 .61 1.61 2.27 2.27 0 0 1-.5 1.45zm-8.86-14.08a6.57 6.57 0 0 0-4 1.24 5.59 5.59 0 0 0-2.17 3.35h12.22a5.7 5.7 0 0 0-2.1-3.35 6.29 6.29 0 0 0-3.95-1.24zm33.85 14.08a9.45 9.45 0 0 1-3.65 2.69 12.85 12.85 0 0 1-5 .94 13.3 13.3 0 0 1-4.71-.81 10.75 10.75 0 0 1-3.63-2.25 9.71 9.71 0 0 1-2.33-3.46A11.91 11.91 0 0 1 95 21a12 12 0 0 1 .81-4.48 9.93 9.93 0 0 1 2.3-3.48 10.54 10.54 0 0 1 3.58-2.25 12.53 12.53 0 0 1 4.58-.81 11.87 11.87 0 0 1 4.25.76 11.16 11.16 0 0 1 3.41 2.08 9.42 9.42 0 0 1 2.26 3.09 8.92 8.92 0 0 1 .81 3.78v.22a2.69 2.69 0 0 1-.79 2 2.87 2.87 0 0 1-2.06.77h-14.07a5.87 5.87 0 0 0 2.15 3.65 6.7 6.7 0 0 0 4.25 1.33 6.8 6.8 0 0 0 3-.61 6.27 6.27 0 0 0 2.08-1.53 2.39 2.39 0 0 1 3.46-.26 2.14 2.14 0 0 1 .61 1.61 2.27 2.27 0 0 1-.52 1.5zm-8.85-14.08a6.54 6.54 0 0 0-4 1.24 5.51 5.51 0 0 0-2.17 3.35h12.22a5.65 5.65 0 0 0-2.1-3.35 6.29 6.29 0 0 0-3.95-1.24z"></path>
</svg>
