<?xml version="1.0" encoding="UTF-8" standalone="no"?>
<!-- Created with Inkscape (http://www.inkscape.org/) -->

<svg
   width="210mm"
   height="297mm"
   viewBox="0 0 210 297"
   version="1.1"
   id="svg1"
   inkscape:version="1.3.2 (091e20ef0f, 2023-11-25)"
   sodipodi:docname="dessin.svg"
   xmlns:inkscape="http://www.inkscape.org/namespaces/inkscape"
   xmlns:sodipodi="http://sodipodi.sourceforge.net/DTD/sodipodi-0.dtd"
   xmlns="http://www.w3.org/2000/svg"
   xmlns:svg="http://www.w3.org/2000/svg">
  <sodipodi:namedview
     id="namedview1"
     pagecolor="#ffffff"
     bordercolor="#000000"
     borderopacity="0.25"
     inkscape:showpageshadow="2"
     inkscape:pageopacity="0.0"
     inkscape:pagecheckerboard="0"
     inkscape:deskcolor="#d1d1d1"
     inkscape:document-units="mm"
     showguides="false"
     inkscape:zoom="0.50038389"
     inkscape:cx="364.71998"
     inkscape:cy="596.54199"
     inkscape:window-width="1920"
     inkscape:window-height="1048"
     inkscape:window-x="0"
     inkscape:window-y="0"
     inkscape:window-maximized="1"
     inkscape:current-layer="layer1">
    <sodipodi:guide
       position="-4.6027967,133.30054"
       orientation="1,0"
       id="guide13"
       inkscape:locked="false" />
  </sodipodi:namedview>
  <defs
     id="defs1">
    <inkscape:path-effect
       effect="perspective-envelope"
       up_left_point="49.91708,187.65466"
       up_right_point="194.29015,172.07797"
       down_left_point="51.008623,210.42515"
       down_right_point="197.22544,217.19759"
       id="path-effect18"
       is_visible="true"
       lpeversion="1"
       deform_type="perspective"
       horizontal_mirror="false"
       vertical_mirror="false"
       overflow_perspective="false" />
    <inkscape:path-effect
       effect="perspective-envelope"
       up_left_point="49.91708,187.65466"
       up_right_point="194.29015,172.07797"
       down_left_point="51.008623,210.42515"
       down_right_point="197.22544,217.19759"
       id="path-effect16"
       is_visible="true"
       lpeversion="1"
       deform_type="perspective"
       horizontal_mirror="false"
       vertical_mirror="false"
       overflow_perspective="false" />
    <inkscape:path-effect
       effect="perspective-envelope"
       up_left_point="49.91708,187.65466"
       up_right_point="194.29015,172.07797"
       down_left_point="51.008623,210.42515"
       down_right_point="197.22544,217.19759"
       id="path-effect14"
       is_visible="true"
       lpeversion="1"
       deform_type="perspective"
       horizontal_mirror="false"
       vertical_mirror="false"
       overflow_perspective="false" />
    <inkscape:path-effect
       effect="perspective-envelope"
       up_left_point="26.201237,150.2793"
       up_right_point="141.04139,152.33734"
       down_left_point="26.201237,178.56066"
       down_right_point="141.04139,176.50262"
       id="path-effect13"
       is_visible="true"
       lpeversion="1"
       deform_type="perspective"
       horizontal_mirror="true"
       vertical_mirror="false"
       overflow_perspective="false" />
    <inkscape:path-effect
       effect="perspective-envelope"
       up_left_point="26.201237,150.2793"
       up_right_point="141.04139,152.33734"
       down_left_point="26.201237,178.56066"
       down_right_point="141.04139,176.50262"
       id="path-effect11"
       is_visible="true"
       lpeversion="1"
       deform_type="perspective"
       horizontal_mirror="true"
       vertical_mirror="false"
       overflow_perspective="false" />
    <inkscape:path-effect
       effect="perspective-envelope"
       up_left_point="26.201237,150.2793"
       up_right_point="141.04139,152.33734"
       down_left_point="26.201237,178.56066"
       down_right_point="141.04139,176.50262"
       id="path-effect9"
       is_visible="true"
       lpeversion="1"
       deform_type="perspective"
       horizontal_mirror="true"
       vertical_mirror="false"
       overflow_perspective="false" />
    <inkscape:path-effect
       effect="perspective-envelope"
       up_left_point="28.8107,82.362759"
       up_right_point="169.38606,76.678752"
       down_left_point="28.8107,128.33676"
       down_right_point="160.1053,149.45282"
       id="path-effect8"
       is_visible="true"
       lpeversion="1"
       deform_type="perspective"
       horizontal_mirror="false"
       vertical_mirror="false"
       overflow_perspective="false" />
    <inkscape:path-effect
       effect="perspective-envelope"
       up_left_point="28.8107,82.362759"
       up_right_point="169.38606,76.678752"
       down_left_point="28.8107,128.33676"
       down_right_point="160.1053,149.45282"
       id="path-effect6"
       is_visible="true"
       lpeversion="1"
       deform_type="perspective"
       horizontal_mirror="false"
       vertical_mirror="false"
       overflow_perspective="false" />
    <inkscape:path-effect
       effect="perspective-envelope"
       up_left_point="28.8107,82.362759"
       up_right_point="169.38606,76.678752"
       down_left_point="28.8107,128.33676"
       down_right_point="160.1053,149.45282"
       id="path-effect4"
       is_visible="true"
       lpeversion="1"
       deform_type="perspective"
       horizontal_mirror="false"
       vertical_mirror="false"
       overflow_perspective="false" />
  </defs>
  <g
     inkscape:label="Calque 1"
     inkscape:groupmode="layer"
     id="layer1">
    <path
       id="path8"
       style="font-size:50.8px;line-height:0.5;font-family:Coolvetica;-inkscape-font-specification:'Coolvetica, Normal';fill:#000000;stroke-width:0.661"
       d="m 88.771832,83.31843 -1.670182,0.0677 -0.709001,14.191898 c 0.554061,-0.947995 1.152164,-1.742451 1.787488,-2.41639 z m -30.963485,1.25212 -1.623673,0.06563 -0.117306,5.395019 -3.254065,0.04082 -0.0279,1.607654 4.86947,-0.06098 z m -6.52725,0.719852 -1.394747,0.05426 -0.07286,4.539258 -12.108304,23.13296 2.315621,0.19637 11.380183,-21.74183 0.02222,-1.381828 -0.225309,0.0026 z m -7.634676,5.06119 -9.444385,0.112138 -5.17e-4,1.606103 8.619113,-0.102319 z m 12.31191,4.669999 -0.566374,25.993769 -3.109371,-0.34416 -0.02429,1.40921 4.721159,0.52245 0.600997,-27.579719 z m 21.986772,0.0217 -1.204061,28.631339 c -0.364826,8.67635 -5.116769,12.57401 -10.682552,11.67888 -1.704833,-0.27419 -3.239177,-0.96145 -4.537191,-1.99006 1.547557,1.91774 3.656921,3.18066 6.124691,3.57756 5.565783,0.89513 10.317726,-3.00253 10.682552,-11.67888 l 1.270723,-30.217288 z m -6.867798,0.09302 c 0.399196,0.57646 0.756143,1.252521 1.069185,2.037602 l 0.03876,-1.059884 c -0.340448,-0.391594 -0.711831,-0.711626 -1.107943,-0.977718 z m 29.065925,0.65474 c 2.35734,3.018686 3.47457,7.971609 3.07786,13.961429 -0.72362,10.9258 -5.700799,16.75459 -11.822028,16.06001 -1.29007,-0.14639 -2.413367,-0.57691 -3.386357,-1.28003 1.25019,1.6977 2.906119,2.63289 4.973857,2.86753 6.121229,0.69458 11.098418,-5.13421 11.822028,-16.06001 0.47723,-7.20553 -1.23159,-12.915437 -4.66536,-15.548929 z m 29.08558,0.783932 c 2.84525,3.556287 3.98097,9.454187 3.21169,17.645967 l -20.28972,-1.29863 c -0.1133,3.75614 1.03476,6.62578 3.14348,7.98194 -1.07253,-1.54833 -1.63602,-3.74098 -1.55598,-6.39444 l 20.28972,1.29863 c 0.89877,-9.57063 -0.80586,-16.005789 -4.79919,-19.233467 z m 35.50222,0.623734 c 3.23643,3.967733 4.40099,10.422663 3.26905,19.298573 l -24.75353,-1.5844 c -0.21411,3.90617 0.9653,6.94515 3.23702,8.5416 -1.21511,-1.70612 -1.80612,-4.09703 -1.64952,-6.9541 l 24.75353,1.5844 c 1.29986,-10.19269 -0.43807,-17.18091 -4.85655,-20.886073 z m -97.180642,2.235006 c -2.990464,-0.07085 -4.601998,2.752577 -4.768184,8.600007 -0.119174,4.19325 1.095958,7.18587 2.987414,8.2181 -0.937777,-1.51147 -1.48072,-3.78736 -1.399914,-6.6306 0.166186,-5.84743 1.77772,-8.67086 4.768184,-8.6 0.56953,0.0135 1.08223,0.13166 1.540992,0.35191 -0.725882,-1.24312 -1.757389,-1.906933 -3.128492,-1.939417 z m 23.765475,0.433048 c -3.502497,-0.0814 -5.436508,3.242979 -5.771224,9.974079 -0.208365,4.19019 1.11598,7.47008 3.203422,8.70076 -1.122312,-1.64975 -1.763894,-4.13758 -1.615922,-7.11326 0.334716,-6.7311 2.268727,-10.05547 5.771224,-9.97407 0.864024,0.0201 1.610366,0.22142 2.251542,0.58446 -0.843201,-1.39908 -2.115413,-2.13191 -3.839042,-2.171969 z m 27.861877,0.077 c -3.05262,-0.06542 -5.74255,2.672149 -6.38049,7.370619 l 1.88671,0.0863 c 0.95696,-3.76892 3.37207,-5.92748 6.08128,-5.86941 0.94445,0.0202 1.8422,0.31279 2.64118,0.82114 -1.02362,-1.55814 -2.56546,-2.373002 -4.22868,-2.408649 z m 32.93081,0.705899 c -3.71979,-0.0797 -7.05805,2.92933 -7.94474,8.09926 l 1.94924,0.0894 c 1.22606,-4.23795 4.24269,-6.67274 7.583,-6.60115 1.30093,0.0279 2.53937,0.40448 3.58376,1.11931 -1.21139,-1.76434 -3.1172,-2.66279 -5.17126,-2.70682 z m -102.705891,14.81254 -0.07855,4.88188 -15.436267,-1.70791 v 1.4118 l 17.023767,1.88361 0.02274,-1.40974 -0.26355,-0.0289 0.08527,-4.91598 z m 21.94388,3.46232 c -0.845775,2.48364 -3.085035,3.74507 -5.676139,3.45612 -1.464557,-0.16331 -2.685254,-0.68101 -3.709851,-1.45004 1.25614,1.66045 2.981537,2.7793 5.297351,3.03754 1.50283,0.16759 2.877472,-0.20099 3.940328,-1.01234 z m 59.618591,1.51722 c -2.71385,6.05366 -7.68298,8.98895 -13.41055,8.33903 -3.12461,-0.35456 -5.63219,-1.3438 -7.56749,-2.94091 2.05984,2.55821 5.09718,4.06796 9.15499,4.52841 6.15923,0.6989 11.44519,-2.74262 13.9883,-9.75599 z m -45.816849,0.18087 -0.228927,3.65973 -4.010091,-0.4439 -0.06253,1.40508 5.66012,0.62632 0.163297,-2.61431 c -0.588911,-0.72316 -1.102201,-1.58708 -1.521869,-2.63292 z m 80.964579,2.59054 c -3.46625,6.75946 -9.66203,9.9808 -16.68012,9.18445 -4.00824,-0.45482 -7.16439,-1.67331 -9.51777,-3.6406 2.43441,2.91608 6.1124,4.66155 11.10527,5.2281 7.48966,0.84986 14.04311,-2.87594 17.34158,-10.5947 z m -104.222075,1.43867 c 0.251527,1.78443 1.087422,3.11749 2.352312,3.83439 -0.576197,-0.95984 -0.893674,-2.1899 -0.852662,-3.65972 z" />
    <path
       style="font-size:50.8px;line-height:0.5;font-family:Coolvetica;-inkscape-font-specification:'Coolvetica, Normal';fill:#1a1a1a;stroke-width:0.661"
       d="m 47.736792,118.75642 0.101687,-6.33293 -11.720961,-0.99402 12.108366,-23.133101 0.09938,-6.189034 -17.296867,0.667272 -0.0018,6.120097 11.032105,-0.130425 -11.345839,22.206841 v 5.90172 z m 6.067677,0.67135 0.601064,-27.57984 -4.853088,-0.0048 -0.468973,27.06228 z m 0.67525,-30.983893 0.153609,-7.048314 -4.903268,0.198258 -0.119763,6.910975 z m 10.921368,26.626553 c -2.578528,-0.23002 -4.349668,-3.58087 -4.206335,-8.6242 0.166186,-5.84743 1.777459,-8.671081 4.767926,-8.60023 3.102282,0.0735 4.567153,3.19196 4.330476,9.59942 -0.181661,4.91804 -2.303488,7.85592 -4.892067,7.62501 z m 4.184852,6.97588 c -0.137875,3.74875 -2.487221,5.79004 -5.272448,5.40891 -2.570699,-0.35178 -4.189678,-2.51939 -4.098038,-5.80365 l -4.619236,-0.53821 c -0.162831,6.92248 3.535893,11.79405 8.875,12.65274 5.565789,0.89514 10.317541,-3.00283 10.682367,-11.67919 l 1.270581,-30.217235 -5.728154,-0.0057 -0.136903,3.72231 c -1.217684,-3.053833 -3.075723,-4.512479 -5.66302,-4.507356 -4.827102,0.0096 -8.733613,5.960902 -8.938498,14.671241 -0.1702,7.23577 1.788233,14.3361 8.125485,15.04279 2.591107,0.28895 4.830281,-0.97208 5.676057,-3.45572 z m 19.143314,-4.5802 c -2.958256,-0.26715 -5.028923,-4.0491 -4.772149,-9.21278 0.334717,-6.73111 2.268978,-10.055579 5.771478,-9.974181 3.792063,0.08813 5.422286,3.493461 5.027586,10.091681 -0.339976,5.68339 -2.85849,9.3814 -6.026915,9.09528 z m -5.397381,5.22867 0.228943,-3.65975 c 1.28895,3.21214 3.379586,4.86428 6.250771,5.19008 6.121235,0.69459 11.098164,-5.1345 11.821784,-16.06031 0.66234,-10.000528 -2.867052,-17.152892 -9.408588,-17.139939 -3.040451,0.006 -5.47218,1.633323 -7.419638,4.965411 l 0.791492,-15.846675 -6.072843,0.245548 -1.851826,41.679405 z m 27.877788,-16.96772 c 0.63794,-4.69847 3.32797,-7.436125 6.38059,-7.370703 3.05244,0.06542 5.76215,2.660883 5.43344,7.911003 z m 19.64338,6.90643 c 1.3464,-14.337223 -3.12083,-21.678935 -12.42988,-21.660503 -8.79131,0.01741 -14.09622,6.757462 -14.79583,17.033363 -0.80255,11.78807 3.18034,18.14734 12.33971,19.18667 6.15923,0.6989 11.44519,-2.7424 13.9883,-9.75578 l -8.26087,-0.65141 c -0.74187,2.32921 -3.0567,3.58959 -5.50704,3.36669 -3.66172,-0.33308 -5.77616,-3.78049 -5.62421,-8.81797 z m 11.72338,-5.47192 c 0.88669,-5.16993 4.22497,-8.179178 7.94476,-8.099457 3.72711,0.07988 6.97894,2.956837 6.44603,8.757597 z m 23.83627,7.74841 c 2.02491,-15.878069 -3.28591,-24.025507 -14.69443,-24.002918 -10.70924,0.02121 -17.29689,7.434311 -18.37968,18.717008 -1.23961,12.91675 3.42395,19.92866 14.5067,21.18625 7.48967,0.84986 14.04305,-2.87614 17.34152,-10.59491 l -10.10542,-0.79686 c -0.96356,2.56022 -3.81874,3.92454 -6.79817,3.65352 -4.4435,-0.4042 -6.92772,-4.21215 -6.62434,-9.74681 z"
       id="text3"
       aria-label="Zigbee" />
    <path
       style="font-size:35.2778px;line-height:0.5;font-family:Coolvetica;-inkscape-font-specification:'Coolvetica, Normal';fill:#000000;stroke-width:0.661"
       d="m 36.32239,167.37487 v -4.11647 l -10.121153,-0.0151 v 4.16995 z m 8.960502,10.32008 V 155.617 l 7.832093,0.0895 v -4.6259 l -21.412561,-0.37477 v 4.75586 l 8.069421,0.0923 v 22.23598 z m 25.979855,-0.44791 v -13.54725 c 0,-3.81502 -2.581734,-6.13553 -6.338544,-6.17003 -2.475438,-0.0227 -4.740053,1.26025 -5.460023,2.99492 v -9.64928 l -4.963195,-0.0889 v 26.74957 l 4.963195,-0.0856 v -11.15204 c 0,-2.61005 1.362994,-4.74037 3.811544,-4.73108 2.20881,0.008 3.140838,0.91311 3.140838,3.8126 v 11.95065 z m 6.810165,-0.11741 v -9.87457 c 0,-3.04723 1.404618,-4.58679 4.269199,-4.57997 0.427765,0.001 0.855031,0.0404 1.281798,0.1179 v -5.09151 l -0.604734,-0.006 c -1.89178,-0.0174 -3.685462,0.19719 -5.235053,2.73024 v -2.27667 l -4.432249,-0.0377 v 19.09922 z m 10.107464,-11.3591 c 0.175467,-2.58667 1.680995,-4.10234 3.493323,-4.09547 1.768701,0.007 3.42548,1.33185 3.494348,4.08249 z m 11.571975,3.04844 c 0,-7.30045 -2.729849,-10.99446 -7.939617,-11.0423 -5.285898,-0.0485 -8.366637,3.67573 -8.366637,9.49601 0,6.81588 2.904388,10.21005 8.644547,10.10718 3.627868,-0.065 6.401735,-2.25246 7.423675,-6.05024 l -4.587366,0.0443 c -0.310215,1.28502 -1.588354,2.09289 -3.044722,2.11114 -2.230559,0.028 -3.701855,-1.77971 -3.84229,-4.59407 z m 11.472799,0.8504 c -0.0329,2.13695 -1.68253,3.96362 -3.90516,3.99264 -1.36704,0.0178 -2.10275,-0.64129 -2.10275,-2.01592 0,-1.5604 0.80252,-2.34611 3.26557,-2.8808 1.58853,-0.34185 2.34718,-0.60417 2.77525,-1.08531 z m 4.28524,6.81481 v -11.38685 c 0,-4.5401 -1.7601,-7.11921 -6.89493,-7.16636 -5.27785,-0.0485 -7.16746,2.58599 -7.23513,6.39562 l 4.07117,5.3e-4 c 0.20066,-1.63366 1.0022,-2.70725 2.96497,-2.69949 1.68789,0.007 2.74285,0.71081 2.74285,1.88973 0,1.25261 -0.59303,1.73225 -2.74285,2.06764 -4.37283,0.67706 -7.57797,1.28345 -7.57797,6.59161 0,2.99051 1.75796,5.01498 5.51511,4.94765 2.19553,-0.0393 3.91579,-0.9186 4.93735,-2.18805 0.0329,0.552 0.13161,1.17651 0.26316,1.61618 z m 9.3033,-3.5202 c -2.06365,0.0255 -3.53155,-2.1713 -3.53155,-5.36674 0,-3.66747 1.14932,-5.51549 3.56321,-5.50734 2.27137,0.008 3.43279,1.9167 3.43279,5.76289 0,2.98348 -1.50747,5.08697 -3.46445,5.11119 z m 7.29739,3.23399 V 152.1773 l -3.98966,-0.0715 v 8.77273 c -1.16195,-1.87875 -2.67524,-2.79301 -4.60798,-2.81076 -4.05887,-0.0373 -6.47829,3.77656 -6.47829,9.22011 0,6.06464 2.86919,9.59354 6.82761,9.5226 1.89924,-0.034 3.34827,-0.88804 4.32136,-2.70184 l 0.0314,2.1565 z m 8.93031,-9.22035 v -3.56306 l -7.56951,-0.0113 v 3.60306 z"
       id="path11"
       aria-label="-Thread-"
       inkscape:path-effect="#path-effect13"
       inkscape:original-d="m 35.102148,166.97762 v -3.56306 h -8.748889 v 3.56306 z m 7.937555,9.06639 v -19.33223 h 7.090834 v -4.09222 H 31.080536 v 4.09222 h 7.055556 v 19.33223 z m 24.094752,0 v -12.27667 c 0,-3.45722 -2.469445,-5.53861 -6.032501,-5.53861 -2.328333,0 -4.445,1.16416 -5.115277,2.71639 v -8.60778 h -4.586112 v 23.70667 h 4.586112 v -9.94834 c 0,-2.32833 1.27,-4.23333 3.563055,-4.23333 2.081389,0 2.963334,0.81139 2.963334,3.42194 v 10.75973 z m 6.596953,0 v -9.03111 c 0,-2.78695 1.375834,-4.19806 4.198056,-4.19806 0.423333,0 0.846667,0.0353 1.27,0.10583 v -4.69194 h -0.599722 c -1.869722,0 -3.633611,0.21166 -5.150556,2.54 v -2.08139 h -4.303889 v 17.35667 z m 10.018837,-10.37167 c 0.176389,-2.39889 1.693334,-3.81 3.527778,-3.81 1.799167,0 3.4925,1.23472 3.563056,3.81 z m 11.818056,2.89278 c 0,-6.87917 -2.822222,-10.33639 -8.149167,-10.33639 -5.326944,0 -8.396111,3.45722 -8.396111,8.81944 0,6.27945 2.892778,9.45445 8.678334,9.45445 3.704166,0 6.561666,-2.01084 7.62,-5.57389 h -4.727223 c -0.3175,1.19944 -1.622777,1.94028 -3.104444,1.94028 -2.257778,0 -3.739445,-1.69334 -3.880556,-4.30389 z m 12.100289,0.88194 c -0.0353,2.04611 -1.79917,3.77472 -4.16278,3.77472 -1.44639,0 -2.2225,-0.635 -2.2225,-1.94027 0,-1.48167 0.84667,-2.2225 3.45722,-2.71639 1.69334,-0.3175 2.50473,-0.56445 2.96334,-1.02306 z m 4.62139,6.59695 v -10.97139 c 0,-4.37445 -1.905,-6.84389 -7.40834,-6.84389 -5.573885,0 -7.549441,2.50472 -7.619996,6.10305 h 4.268616 c 0.21166,-1.55222 1.05833,-2.57527 3.13972,-2.57527 1.79916,0 2.92805,0.67027 2.92805,1.79916 0,1.19945 -0.635,1.65806 -2.92805,1.97556 -4.62139,0.635 -7.972781,1.19944 -7.972781,6.20889 0,2.82222 1.834445,4.7625 5.785561,4.7625 2.32833,0 4.16277,-0.81139 5.25638,-2.01084 0.0353,0.52917 0.14112,1.12889 0.28223,1.55223 z m 10.23056,-3.28084 c -2.29306,0 -3.91584,-2.15194 -3.91584,-5.25639 0,-3.56305 1.27,-5.36222 3.95112,-5.36222 2.54,0 3.84527,1.86972 3.84527,5.64445 0,2.92805 -1.69333,4.97416 -3.88055,4.97416 z m 8.21972,3.28084 v -23.70667 h -4.51556 v 8.60778 c -1.30527,-1.83445 -2.99861,-2.71639 -5.15055,-2.71639 -4.48028,0 -7.12611,3.70416 -7.12611,8.96055 0,5.85612 3.13972,9.31334 7.51416,9.31334 2.11667,0 3.73945,-0.81139 4.83306,-2.57528 l 0.0353,2.11667 z m 10.30113,-9.06639 v -3.56306 h -8.74888 v 3.56306 z"
       transform="rotate(-3.9998751,-54.40436,-64.509966)" />
    <path
       id="path13"
       style="font-size:35.2778px;line-height:0.5;font-family:Coolvetica;-inkscape-font-specification:'Coolvetica, Normal';fill:#000000;stroke-width:0.661"
       d="m 148.88848,140.75609 -0.98082,0.0506 1.59784,22.85287 -2.91972,0.25477 0.0966,1.14257 3.88142,-0.339 z m -72.560949,3.76876 -0.980819,0.0512 0.595829,8.51627 c 0.171507,-0.51135 0.483945,-0.98866 0.884702,-1.42109 z m -6.319511,0.64751 -0.980818,0.0512 0.245462,3.50521 -7.819677,0.45682 1.540475,22.02398 -4.512903,0.39429 0.0801,1.1436 5.491138,-0.47956 -1.540475,-22.02398 7.819678,-0.45682 z m 74.16085,3.12074 c 0.0964,0.11952 0.19493,0.23293 0.28835,0.36276 l -0.01,-0.139 c -0.0909,-0.0808 -0.18526,-0.15059 -0.27853,-0.22376 z m -13.36921,0.91002 c 0.81624,1.11742 1.23884,2.64371 1.37149,4.5408 l 0.79427,11.35952 -3.17345,0.27648 c 0.077,0.40876 0.17306,0.81557 0.2899,1.12551 l 3.94188,-0.34366 -0.79427,-11.35951 c -0.18112,-2.59022 -0.89573,-4.49655 -2.42982,-5.59914 z m -74.848663,0.30386 -7.075537,0.41341 0.07803,1.1157 7.075537,-0.41342 z m 44.953333,0.14159 -0.60358,0.0367 c -0.12742,0.008 -0.24889,0.033 -0.375176,0.0434 l 0.275956,3.94084 c -0.431139,-0.0476 -0.860471,-0.0567 -1.287264,-0.0279 -2.858077,0.19301 -4.151852,1.82655 -3.939294,4.86637 l 0.688846,9.85056 -3.725353,0.32505 0.0801,1.1436 4.703587,-0.41032 -0.688846,-9.85055 c -0.212558,-3.03982 1.081218,-4.67337 3.939295,-4.86638 0.180929,-0.0122 0.363989,0.0104 0.545699,0.0119 0.1364,-0.7192 0.33555,-1.39164 0.59997,-2.00969 z m 40.36911,0.44442 c -2.40857,0.16025 -3.42617,2.08375 -3.17035,5.74228 0.1551,2.2181 0.99384,3.88278 2.17764,4.64623 -0.60541,-0.88959 -1.0162,-2.11335 -1.11931,-3.58789 -0.25582,-3.65854 0.76178,-5.58204 3.17036,-5.74229 0.65237,-0.0434 1.21406,0.0962 1.70376,0.38085 -0.64616,-1.03008 -1.56367,-1.51892 -2.7621,-1.43918 z m -46.268496,0.41651 -0.874882,0.0538 0.08061,1.15289 c 0.250541,-0.48217 0.518373,-0.86553 0.794267,-1.20664 z m 19.212786,0.0915 c 1.40062,1.74703 2.24446,4.3952 2.49338,7.95507 l -11.67887,0.88884 c 0.21399,1.77962 0.9398,3.10896 2.0097,3.79821 -0.48496,-0.7137 -0.81875,-1.63698 -0.95137,-2.73989 l 11.67888,-0.88883 c -0.30622,-4.37921 -1.5129,-7.37845 -3.55172,-9.0134 z m 11.23807,0.1695 c -0.19147,-0.009 -0.39305,-0.007 -0.60358,0.007 -1.95853,0.12917 -2.68312,1.25587 -2.76934,2.89955 l -2.98794,0.20878 c -0.0217,0.36827 -0.0354,0.74128 -0.015,1.13327 l 4.06125,-0.28371 c 0.0862,-1.64368 0.81081,-2.77039 2.76934,-2.89957 0.68687,-0.0453 1.2698,0.0386 1.73323,0.22635 -0.24576,-0.78043 -1.03655,-1.23863 -2.18798,-1.29191 z m 33.12511,0.57257 -0.97978,0.0672 0.17001,2.4288 -6.57015,0.4842 0.0791,1.13068 7.5494,-0.55655 z m -71.851947,0.64027 c 0.680572,0.90889 1.107778,2.06867 1.204578,3.45302 l 0.945162,13.51442 -3.850411,0.3359 0.0801,1.1436 4.828646,-0.42117 -0.945162,-13.51442 c -0.139951,-2.00144 -0.968161,-3.53476 -2.262912,-4.51135 z m 21.424537,0.01 c -1.80839,0.11956 -3.20468,1.73632 -3.19929,4.32893 l 1.16789,-0.0837 c 0.34706,-1.91366 1.56652,-3.08618 3.08973,-3.18688 0.68676,-0.0454 1.36767,0.11605 1.96215,0.48369 -0.72753,-1.11572 -1.86549,-1.61839 -3.02048,-1.54203 z m -27.565764,1.86655 c -0.238474,-0.0146 -0.494994,-0.0115 -0.770496,0.007 -2.44323,0.16153 -3.654201,2.38154 -3.472139,4.98522 l 0.77773,11.12491 -3.966683,0.34623 0.0801,1.14361 4.944917,-0.4315 -0.777731,-11.12491 c -0.182062,-2.60369 1.028909,-4.82369 3.47214,-4.98522 0.74592,-0.0493 1.342505,0.027 1.827278,0.24442 -0.422546,-0.85433 -1.101044,-1.24737 -2.115116,-1.30948 z m 47.521134,2.75745 c -0.39347,0.50984 -1.13152,0.82459 -2.69235,1.27642 -2.41975,0.70519 -3.1655,1.54502 -3.05665,3.10162 0.0678,0.97013 0.48434,1.54945 1.20095,1.76992 -0.071,-0.21087 -0.12376,-0.44187 -0.14262,-0.71159 -0.10884,-1.5566 0.63691,-2.39642 3.05665,-3.10162 0.75126,-0.21747 1.30358,-0.40332 1.72704,-0.59428 z m -74.003238,1.87431 -0.979785,0.0672 0.208772,2.98121 -9.114689,0.6718 0.07906,1.13067 10.093958,-0.74413 z m 91.336548,3.35794 c -0.8442,1.87725 -2.23,2.83028 -4.12223,2.99671 -1.54669,0.13604 -2.96118,-0.29964 -4.13928,-1.23507 1.33769,1.66026 3.1533,2.47321 5.19761,2.2934 1.48824,-0.1309 2.65852,-0.75705 3.50315,-1.92804 l -0.25735,0.0222 z m -27.73526,0.28577 -1.37046,0.10904 c -1.01834,3.16391 -3.4399,5.102 -6.67143,5.38623 -2.49913,0.21981 -4.50421,-0.26476 -6.00997,-1.44695 1.56932,1.93771 3.92602,2.78166 7.0683,2.50528 3.6145,-0.31791 6.22902,-2.6938 6.98356,-6.5536 z m 10.94093,1.71823 c -0.93052,1.33763 -2.58487,2.33459 -4.77232,2.52699 -1.69081,0.14871 -2.98468,-0.17582 -3.93619,-0.83045 0.91429,1.36095 2.55497,2.10336 4.99452,1.88878 1.89761,-0.16691 3.39225,-0.94035 4.36305,-2.01538 l -0.27337,0.0238 c -0.1619,-0.42942 -0.30434,-1.04534 -0.37569,-1.59371 z" />
    <path
       id="path18"
       style="font-size:50.8px;line-height:0.5;font-family:Coolvetica;-inkscape-font-specification:'Coolvetica, Normal';fill:#000000;stroke-width:0.661"
       d="m 48.626317,183.5436 -1.673283,0.006 -1.261939,23.51743 -2.405021,-0.35605 -0.07286,1.34152 4.065386,0.60202 0.208772,-3.88968 c -0.190546,-0.66548 -0.262979,-1.39203 -0.221692,-2.16369 0.05549,-1.03709 0.218908,-1.8859 0.476457,-2.58692 z m -13.067936,0.0496 -1.366325,0.005 2.185396,15.72308 0.887285,-3.45199 z m 36.035009,1.53737 -0.21239,4.1858 1.665016,0.0584 0.214973,-4.23591 z m 21.403346,0.10749 -0.233061,4.83123 1.661398,0.0584 0.235129,-4.88136 z m -61.45258,4.01732 -0.864547,15.58872 -1.680001,-0.24909 -0.07493,1.34152 3.342432,0.49506 0.507979,-9.15499 z m 10.991059,0.41084 -4.604886,16.25172 -2.543514,-0.37673 0.21239,1.38389 3.918624,0.58033 2.536279,-8.95087 z m 19.843751,1.42936 c 0.875741,1.37653 1.186665,3.22748 1.069185,5.50251 l -0.671277,12.99921 -3.191019,-0.47233 c 0.02829,0.48992 0.08182,0.9892 0.175183,1.37821 l 4.603336,0.68161 0.671278,-12.99921 c 0.171513,-3.32141 -0.574907,-5.7346 -2.656686,-7.09 z m 21.215755,0.18242 -0.133843,2.72077 -12.282449,-0.68989 -0.445452,8.7788 c -0.113531,2.23709 0.470528,3.76332 1.97559,4.38785 -0.318399,-0.74376 -0.445021,-1.67854 -0.388089,-2.80036 l 0.445451,-8.77878 12.282451,0.68987 0.209297,-4.24987 z m 24.403699,0.8599 -0.15038,3.23133 -15.298307,-0.85991 -0.471291,9.7653 c -0.112038,2.32316 0.518605,3.96905 2.12235,4.76405 -0.420962,-0.84131 -0.596363,-1.90112 -0.534847,-3.17655 l 0.47129,-9.76529 15.298305,0.85989 0.22117,-4.76043 z m -52.429375,0.094 c -2.084939,-0.11477 -2.978864,0.97578 -3.277319,2.68614 l -2.280481,-0.1633 c -0.09925,0.46371 -0.169273,0.94898 -0.205155,1.45882 l 4.073137,0.29197 c 0.298455,-1.71035 1.192378,-2.80091 3.277319,-2.68614 0.485693,0.0267 0.918662,0.10733 1.297078,0.231 -0.173619,-1.05757 -1.247747,-1.72839 -2.884579,-1.81849 z m 117.755615,1.34513 -0.2837,7.32617 c -1.18838,-0.20752 -2.3697,-0.34745 -3.54397,-0.42012 -7.59205,-0.46992 -11.25296,1.84396 -11.45564,6.85281 l -0.65836,16.27135 -9.58546,-1.41903 -0.0563,1.3441 11.22929,1.66243 0.65835,-16.27136 c 0.20268,-5.00884 3.86359,-7.32272 11.45564,-6.85281 1.17426,0.0727 2.35558,0.21261 3.54397,0.42014 l 0.34313,-8.86045 z m -15.45953,0.3173 -0.0889,2.19211 c 0.55771,-0.55143 1.1294,-1.01913 1.70997,-1.43712 l 0.0284,-0.69711 z m -18.43866,1.91667 c 2.56245,3.00763 3.82257,7.27896 3.58789,12.83695 l -24.75972,-2.45669 c 0.0525,2.5622 1.15237,4.6883 3.06647,6.05234 -0.9112,-1.23112 -1.44368,-2.74103 -1.47898,-4.46485 l 24.75974,2.4567 c 0.27921,-6.61313 -1.53775,-11.42434 -5.1754,-14.42445 z m -13.61623,0.45528 c -3.59683,-0.20046 -6.59057,1.814 -7.08948,5.48907 l 1.94717,0.15658 c 0.99656,-2.75453 3.63471,-4.23065 6.72982,-4.05815 1.59944,0.0891 3.14087,0.59055 4.38371,1.45728 -1.28347,-1.88325 -3.57192,-2.91107 -5.97122,-3.04478 z m -42.594817,2.71197 -0.247534,5.01468 c -0.237647,4.82043 -3.286729,8.70734 -9.561689,7.75922 -1.981422,-0.29938 -3.534957,-0.95465 -4.730461,-1.85053 1.263535,1.71042 3.301018,2.98219 6.317961,3.43803 6.274962,0.94813 9.324045,-2.93879 9.561691,-7.75921 l 0.319873,-6.48023 z m -24.863085,0.0842 c -0.507374,0.48241 -1.364947,0.68426 -3.116606,0.8754 -2.634666,0.29237 -3.506384,1.0303 -3.593579,2.6758 -0.06784,1.28033 0.519746,2.02776 1.63556,2.31976 -0.04003,-0.22458 -0.0623,-0.46345 -0.04806,-0.73226 0.08719,-1.64549 0.958911,-2.38344 3.593579,-2.6758 0.543471,-0.0593 0.976706,-0.12281 1.364257,-0.19224 0.0023,-0.0273 0.01105,-0.0521 0.01292,-0.0796 z m 49.245072,1.70894 -0.26924,5.79551 c -0.25079,5.40211 -4.02974,9.70164 -11.850969,8.51989 -2.750629,-0.4156 -4.841103,-1.31559 -6.384107,-2.5275 1.561957,2.01042 4.125033,3.5338 7.971612,4.115 7.821224,1.18175 11.600174,-3.11778 11.850964,-8.51989 l 0.33745,-7.26106 z m -49.626444,6.30865 c -1.21084,1.21866 -3.137102,1.86552 -5.462715,1.51412 -1.174696,-0.17748 -2.114667,-0.54192 -2.881995,-1.02733 0.807903,1.32874 2.254392,2.28015 4.469494,2.61484 2.062624,0.31165 3.808165,-0.16466 5.021916,-1.12604 l -0.944129,-0.14004 c -0.122679,-0.51115 -0.19749,-1.2195 -0.202571,-1.83555 z m 83.586634,6.85179 c -2.96921,4.77774 -8.91143,6.77123 -15.93339,5.71024 -4.73359,-0.71523 -8.33805,-2.14125 -10.88822,-4.26537 2.53881,3.01366 6.65036,4.97268 12.47572,5.85287 7.64188,1.15466 14.01513,-1.29864 16.65738,-7.03264 z" />
    <path
       style="font-size:50.8px;line-height:0.5;font-family:Coolvetica;-inkscape-font-specification:'Coolvetica, Normal';fill:#000000;stroke-width:0.661"
       d="m 69.52447,210.7907 -1.258523,-25.11573 -6.169474,0.66563 -2.637212,17.70959 -4.185601,-16.97346 -5.35658,0.57793 1.070528,22.33209 3.375912,0.14642 -0.753734,-15.59482 4.118843,15.74076 3.957641,0.17165 2.898508,-16.64126 0.833903,16.80313 z m 11.840571,-7.07715 c 0.08433,2.35762 -1.655482,4.30399 -4.065793,4.2432 -1.442879,-0.0364 -2.243162,-0.7614 -2.316808,-2.2117 -0.08357,-1.64568 0.707347,-2.46961 3.297612,-3.03307 1.722474,-0.37138 2.554321,-0.66087 3.009046,-1.1932 z m 5.415202,7.82554 -0.677655,-12.99916 c -0.269614,-5.17189 -2.508307,-7.93944 -8.277718,-7.52667 -5.480215,0.39207 -7.204629,3.23844 -7.074166,7.14146 l 4.081556,-0.13096 c 0.119847,-1.73206 0.896312,-2.90952 2.981936,-3.01115 1.843742,-0.0898 3.060241,0.62326 3.127125,1.92113 0.07109,1.37943 -0.566664,1.92453 -2.90875,2.3459 -4.536993,0.81084 -7.676781,1.48539 -7.404298,6.90623 0.153665,3.05704 1.988132,5.2401 5.834964,5.41828 2.349495,0.10882 4.197949,-0.73427 5.276169,-2.07169 0.06881,0.6122 0.216595,1.30928 0.391515,1.80499 z m 13.795837,-8.21316 c 0.14778,2.7468 -0.857761,4.30109 -3.179587,4.25307 -2.310864,-0.0478 -3.337167,-1.63461 -3.480212,-4.33252 l -0.465418,-8.77814 12.287927,-0.58471 -0.23142,-4.24855 -12.268162,0.84129 -0.305628,-5.76436 -5.262235,0.5208 0.973119,18.57197 c 0.23507,4.48631 2.771329,8.49194 8.931037,8.77724 6.339399,0.29363 8.970019,-3.88769 8.707529,-8.70683 l -0.3529,-6.47869 -5.66385,0.17141 z m 23.06696,-0.0262 c 0.17333,3.06693 -1.08571,4.79954 -3.97276,4.73984 -2.86561,-0.0593 -4.12984,-1.82664 -4.2965,-4.82722 l -0.54217,-9.76143 15.30549,-0.7283 -0.27285,-4.75786 -15.27916,1.04778 -0.35592,-6.40816 -6.48549,0.64186 1.12759,20.58615 c 0.27246,4.97433 3.38035,9.42937 11.00184,9.78238 7.90152,0.36598 11.21544,-4.3015 10.90581,-9.70056 l -0.41618,-7.25717 -7.08299,0.21436 z m 17.96912,-5.35013 c 0.1159,-3.70698 2.88503,-6.02062 6.4833,-6.19348 3.6346,-0.17461 7.27638,1.6674 7.67873,5.86163 z m 24.87673,4.34135 c -0.71923,-11.68398 -7.36886,-17.09389 -18.45448,-16.30078 -10.16722,0.7274 -15.35618,6.24425 -14.89725,14.20467 0.53851,9.34105 6.02553,14.31338 17.19246,14.83061 7.72035,0.35759 13.80536,-2.74184 15.84001,-8.71851 l -10.40039,-0.10876 c -0.55168,1.9454 -3.19649,3.08939 -6.21116,3.0202 -4.4565,-0.10227 -7.44807,-2.7821 -7.95056,-6.80868 z m 15.83929,13.39204 -1.0291,-16.25256 c -0.31678,-5.00293 3.08503,-7.68302 10.68494,-8.00134 1.17549,-0.0492 2.36487,-0.0326 3.56834,0.0509 l -0.57562,-8.84823 -1.68479,0.12053 c -5.13013,0.36703 -9.78222,1.08474 -13.42077,5.51684 l -0.23507,-3.71747 -10.5034,0.72027 1.85474,29.91923 z"
       id="path16"
       transform="rotate(5.9402328,107.99408,-36.838179)"
       aria-label="Matter"
       inkscape:path-effect="#path-effect18"
       inkscape:original-d="m 82.63228,221.38586 v -33.7312 h -10.16 l -6.096,24.7396 -6.096,-24.7396 h -10.3632 v 33.7312 h 6.5532 v -23.0124 l 6.2484,23.0124 h 7.0104 l 6.2992,-23.114 v 23.114 z m 17.88158,-9.4996 c -0.0508,2.9464 -2.590796,5.4356 -5.994396,5.4356 -2.0828,0 -3.200399,-0.9144 -3.200399,-2.794 0,-2.1336 1.219199,-3.2004 4.978399,-3.9116 2.4384,-0.4572 3.6068,-0.8128 4.267196,-1.4732 z m 6.6548,9.4996 v -15.7988 c 0,-6.2992 -2.7432,-9.8552 -10.667996,-9.8552 -8.026399,0 -10.871199,3.6068 -10.972799,8.7884 h 6.146799 c 0.3048,-2.2352 1.524,-3.7084 4.5212,-3.7084 2.5908,0 4.216396,0.9652 4.216396,2.5908 0,1.7272 -0.914396,2.3876 -4.216396,2.8448 -6.654799,0.9144 -11.480799,1.7272 -11.480799,8.9408 0,4.064 2.6416,6.858 8.331199,6.858 3.3528,0 5.9944,-1.1684 7.569196,-2.8956 0.0508,0.762 0.2032,1.6256 0.4064,2.2352 z m 17.06881,-9.9568 c 0,3.0988 -1.2192,4.8768 -3.8608,4.8768 -2.6924,0 -3.81,-1.8288 -3.81,-4.9784 v -10.2616 h 13.8176 v -4.6736 h -13.8176 v -6.7564 h -6.5024 v 22.352 c 0,5.3848 2.8956,10.0584 10.2108,10.0584 7.0612,0 10.1092,-4.7244 10.1092,-10.0076 v -7.112 h -6.1468 z m 23.01235,0 c 0,3.0988 -1.2192,4.8768 -3.8608,4.8768 -2.6924,0 -3.81,-1.8288 -3.81,-4.9784 v -10.2616 h 13.8176 v -4.6736 h -13.8176 v -6.7564 h -6.5024 v 22.352 c 0,5.3848 2.8956,10.0584 10.2108,10.0584 7.0612,0 10.1092,-4.7244 10.1092,-10.0076 v -7.112 h -6.1468 z m 15.08755,-4.9784 c 0.254,-3.4544 2.4384,-5.4864 5.08,-5.4864 2.5908,0 5.0292,1.778 5.1308,5.4864 z m 17.018,4.1656 c 0,-9.906 -4.064,-14.8844 -11.7348,-14.8844 -7.6708,0 -12.0904,4.9784 -12.0904,12.7 0,9.0424 4.1656,13.6144 12.4968,13.6144 5.334,0 9.4488,-2.8956 10.9728,-8.0264 h -6.8072 c -0.4572,1.7272 -2.3368,2.794 -4.4704,2.794 -3.2512,0 -5.3848,-2.4384 -5.588,-6.1976 z m 8.89001,10.7696 v -13.0048 c 0,-4.0132 1.9812,-6.0452 6.0452,-6.0452 0.6096,0 1.2192,0.0508 1.8288,0.1524 v -6.7564 h -0.8636 c -2.6924,0 -5.2324,0.3048 -7.4168,3.6576 v -2.9972 h -6.1976 v 24.9936 z" />
  </g>
</svg>
